<svg width="106" height="10" viewBox="0 0 106 10" fill="none" xmlns="http://www.w3.org/2000/svg">
<path d="M0 6.22266C0 6.13672 0.0117188 6.05859 0.0351562 5.98828C0.0585938 5.91797 0.0625 5.82812 0.046875 5.71875C0.289062 5.20312 0.5625 4.72656 0.867188 4.28906C1.17969 3.84375 1.55078 3.45312 1.98047 3.11719C2.05078 3.0625 2.10547 3.00781 2.14453 2.95312C2.19141 2.89062 2.23438 2.83203 2.27344 2.77734C2.32031 2.72266 2.37109 2.67578 2.42578 2.63672C2.48047 2.58984 2.55078 2.55859 2.63672 2.54297C2.83203 2.31641 3.06641 2.10938 3.33984 1.92188C3.61328 1.73438 3.89844 1.55469 4.19531 1.38281C4.49219 1.21094 4.78906 1.03516 5.08594 0.855469C5.39062 0.675781 5.66406 0.480469 5.90625 0.269531C5.99219 0.324219 6.05859 0.34375 6.10547 0.328125C6.16016 0.304688 6.21484 0.300781 6.26953 0.316406C6.33984 0.464844 6.42969 0.570312 6.53906 0.632812C6.65625 0.6875 6.77344 0.746094 6.89062 0.808594C7.01562 0.863281 7.12891 0.933594 7.23047 1.01953C7.33984 1.09766 7.42188 1.20703 7.47656 1.34766C7.42188 1.34766 7.39453 1.36719 7.39453 1.40625C7.40234 1.44531 7.41406 1.48828 7.42969 1.53516C7.44531 1.58203 7.45312 1.625 7.45312 1.66406C7.45312 1.70312 7.41797 1.72266 7.34766 1.72266C7.34766 1.77734 7.375 1.80469 7.42969 1.80469C7.48438 1.80469 7.51172 1.83203 7.51172 1.88672C7.51172 1.93359 7.5 1.97266 7.47656 2.00391C7.46094 2.02734 7.46094 2.07031 7.47656 2.13281C7.28906 2.25781 7.07812 2.37891 6.84375 2.49609C6.61719 2.60547 6.375 2.72266 6.11719 2.84766C5.86719 2.97266 5.60938 3.10938 5.34375 3.25781C5.08594 3.39844 4.82812 3.5625 4.57031 3.75C4.3125 3.9375 4.05078 4.14453 3.78516 4.37109C3.52734 4.59766 3.27734 4.83984 3.03516 5.09766C2.79297 5.34766 2.56641 5.60938 2.35547 5.88281C2.14453 6.14844 1.96484 6.41016 1.81641 6.66797C1.83203 6.70703 1.85156 6.74219 1.875 6.77344C1.90625 6.80469 1.92969 6.83984 1.94531 6.87891C2.24219 6.89453 2.51953 6.89453 2.77734 6.87891C3.03516 6.85547 3.29297 6.87109 3.55078 6.92578C3.58203 6.90234 3.60156 6.87109 3.60938 6.83203C3.61719 6.79297 3.64062 6.76562 3.67969 6.75C4.21094 6.69531 4.70703 6.60938 5.16797 6.49219C5.62891 6.36719 6.09766 6.24219 6.57422 6.11719C6.43359 6.0625 6.30859 6.01953 6.19922 5.98828C6.15234 5.94141 6.15234 5.90234 6.19922 5.87109C6.25391 5.83203 6.29688 5.79297 6.32812 5.75391C6.20312 5.68359 6.09766 5.58984 6.01172 5.47266C5.93359 5.35547 5.88672 5.20312 5.87109 5.01562C5.92578 4.96875 5.95312 4.91406 5.95312 4.85156C5.95312 4.78906 5.92578 4.73828 5.87109 4.69922C5.83203 4.68359 5.80859 4.68359 5.80078 4.69922C5.79297 4.71484 5.78516 4.73047 5.77734 4.74609C5.77734 4.76172 5.76953 4.77734 5.75391 4.79297C5.74609 4.80859 5.72656 4.80859 5.69531 4.79297C5.70312 4.70703 5.72266 4.63672 5.75391 4.58203C5.78516 4.52734 5.80859 4.46094 5.82422 4.38281L6.79688 3.73828C6.89844 3.81641 7.02344 3.89844 7.17188 3.98438C7.32031 4.07031 7.47656 4.15625 7.64062 4.24219C7.80469 4.32812 7.97266 4.41797 8.14453 4.51172C8.31641 4.59766 8.47656 4.68359 8.625 4.76953C8.76562 4.83203 8.88672 4.91016 8.98828 5.00391C9.08984 5.08984 9.1875 5.18359 9.28125 5.28516C9.375 5.37891 9.46875 5.47266 9.5625 5.56641C9.65625 5.66016 9.76953 5.73828 9.90234 5.80078C9.88672 5.92578 9.89453 6.02734 9.92578 6.10547C9.95703 6.18359 9.96484 6.27734 9.94922 6.38672C9.80078 6.65234 9.62109 6.87891 9.41016 7.06641C9.19922 7.24609 8.96094 7.40234 8.69531 7.53516C8.4375 7.66797 8.16016 7.78125 7.86328 7.875C7.56641 7.96094 7.26172 8.04688 6.94922 8.13281C6.63672 8.21094 6.32031 8.29688 6 8.39062C5.6875 8.47656 5.37891 8.57812 5.07422 8.69531C4.94141 8.69531 4.82812 8.69922 4.73438 8.70703C4.64062 8.71484 4.55078 8.72656 4.46484 8.74219C4.37891 8.75781 4.29297 8.77344 4.20703 8.78906C4.12109 8.80469 4.02734 8.81641 3.92578 8.82422C3.88672 8.81641 3.85938 8.82422 3.84375 8.84766C3.83594 8.87109 3.82031 8.89062 3.79688 8.90625C3.64062 8.92969 3.5 8.94141 3.375 8.94141C3.25 8.94141 3.14453 8.94141 3.05859 8.94141C2.94922 8.94141 2.83594 8.95703 2.71875 8.98828C2.60156 9.01953 2.49219 9.03125 2.39062 9.02344C1.6875 8.99219 1.13672 8.74219 0.738281 8.27344C0.339844 7.80469 0.121094 7.16016 0.0820312 6.33984C0.0898438 6.30078 0.0820312 6.27734 0.0585938 6.26953C0.0351562 6.25391 0.015625 6.23828 0 6.22266ZM16.3008 5.48438C16.293 5.57812 16.3008 5.66797 16.3242 5.75391C16.3477 5.83984 16.375 5.92578 16.4062 6.01172C16.4453 6.08984 16.4805 6.17188 16.5117 6.25781C16.543 6.34375 16.5664 6.42969 16.582 6.51562C16.5977 6.625 16.5977 6.74609 16.582 6.87891C16.5664 7.00391 16.5391 7.12891 16.5 7.25391C16.4609 7.37109 16.4102 7.48047 16.3477 7.58203C16.2852 7.67578 16.2109 7.74609 16.125 7.79297C16.0156 7.93359 15.8828 8.04297 15.7266 8.12109C15.5703 8.19922 15.4258 8.29297 15.293 8.40234C15.207 8.45703 15.1094 8.49609 15 8.51953C14.8984 8.54297 14.793 8.56641 14.6836 8.58984C14.5977 8.63672 14.4961 8.6875 14.3789 8.74219C14.2617 8.78906 14.1406 8.83594 14.0156 8.88281C13.8906 8.92188 13.7656 8.95312 13.6406 8.97656C13.5156 8.99219 13.4062 8.99609 13.3125 8.98828C13.0781 9.07422 12.8477 9.12891 12.6211 9.15234C12.4023 9.18359 12.1445 9.16797 11.8477 9.10547C11.5664 9.14453 11.3047 9.13281 11.0625 9.07031C10.8281 9.00781 10.6172 8.91016 10.4297 8.77734C10.25 8.63672 10.0898 8.47266 9.94922 8.28516C9.81641 8.08984 9.70703 7.88672 9.62109 7.67578C9.55859 7.23047 9.57422 6.82812 9.66797 6.46875C9.76172 6.10156 9.89453 5.76562 10.0664 5.46094C10.2461 5.14844 10.4492 4.86328 10.6758 4.60547C10.9023 4.33984 11.1211 4.08203 11.332 3.83203C11.3789 3.84766 11.4141 3.84766 11.4375 3.83203C11.4688 3.80859 11.4961 3.78125 11.5195 3.75C11.543 3.71094 11.5664 3.67578 11.5898 3.64453C11.6211 3.61328 11.6562 3.59375 11.6953 3.58594C11.75 3.46875 11.8281 3.38281 11.9297 3.32812C12.0391 3.26562 12.125 3.17969 12.1875 3.07031C12.2578 3.05469 12.3164 3.03125 12.3633 3C12.4102 2.96875 12.4531 2.93359 12.4922 2.89453C12.5391 2.85547 12.5859 2.82031 12.6328 2.78906C12.6797 2.75 12.7344 2.72266 12.7969 2.70703V2.57812C12.9375 2.51562 13.0391 2.44531 13.1016 2.36719C13.1719 2.28125 13.2539 2.17969 13.3477 2.0625C13.418 2.05469 13.4727 2.05078 13.5117 2.05078C13.5586 2.05078 13.625 2.04297 13.7109 2.02734C13.7734 1.91797 13.8281 1.83594 13.875 1.78125C13.9297 1.72656 14.0078 1.66797 14.1094 1.60547C14.2031 1.65234 14.3047 1.68359 14.4141 1.69922C14.5312 1.71484 14.6328 1.76562 14.7188 1.85156C14.7266 1.92969 14.75 1.99219 14.7891 2.03906C14.8281 2.07812 14.8711 2.11719 14.918 2.15625C14.9648 2.1875 15.0078 2.22266 15.0469 2.26172C15.0938 2.30078 15.125 2.35547 15.1406 2.42578C15.1719 2.43359 15.1914 2.42969 15.1992 2.41406C15.2148 2.39844 15.2383 2.39453 15.2695 2.40234C15.293 2.51172 15.3203 2.58594 15.3516 2.625C15.3828 2.65625 15.4141 2.72266 15.4453 2.82422C15.4062 2.90234 15.375 2.98438 15.3516 3.07031C15.3359 3.14844 15.2891 3.20703 15.2109 3.24609C15.2031 3.30078 15.2188 3.33203 15.2578 3.33984C15.2969 3.33984 15.3203 3.35938 15.3281 3.39844C15.3359 3.46875 15.3242 3.51953 15.293 3.55078C15.4805 3.85547 15.6484 4.17969 15.7969 4.52344C15.9453 4.85938 16.1133 5.17969 16.3008 5.48438ZM14.8359 6.59766C14.8672 6.51172 14.9062 6.44141 14.9531 6.38672C15.0078 6.33203 15.0391 6.25 15.0469 6.14062C15.0078 6.07812 14.9844 6.03125 14.9766 6C14.9688 5.96094 14.9648 5.90234 14.9648 5.82422C14.793 5.58203 14.6445 5.32422 14.5195 5.05078C14.3945 4.76953 14.2539 4.50781 14.0977 4.26562C14.082 4.29688 14.0547 4.32812 14.0156 4.35938C13.9766 4.39062 13.9336 4.38281 13.8867 4.33594C13.8711 4.39844 13.8438 4.44531 13.8047 4.47656C13.7656 4.5 13.7227 4.51172 13.6758 4.51172C13.6289 4.50391 13.5781 4.49219 13.5234 4.47656C13.4766 4.45312 13.4336 4.42578 13.3945 4.39453C13.168 4.57422 12.9414 4.75 12.7148 4.92188C12.4883 5.09375 12.2852 5.29297 12.1055 5.51953C12.0742 5.53516 12.0547 5.54297 12.0469 5.54297C12.0391 5.53516 12.0156 5.53906 11.9766 5.55469C11.9141 5.70312 11.8359 5.83984 11.7422 5.96484C11.6562 6.08203 11.5703 6.20312 11.4844 6.32812C11.3984 6.45312 11.3242 6.58594 11.2617 6.72656C11.1992 6.86719 11.1641 7.03125 11.1562 7.21875C11.2891 7.32812 11.4453 7.39453 11.625 7.41797C11.8047 7.44141 11.9883 7.44531 12.1758 7.42969C12.3711 7.41406 12.5586 7.39062 12.7383 7.35938C12.9258 7.32031 13.0977 7.30078 13.2539 7.30078C13.582 7.22266 13.8633 7.12109 14.0977 6.99609C14.332 6.86328 14.5781 6.73047 14.8359 6.59766ZM21.9727 6.62109C21.7383 6.48828 21.5586 6.30078 21.4336 6.05859C21.3086 5.81641 21.2383 5.58594 21.2227 5.36719C21.2461 5.17969 21.2969 5.03516 21.375 4.93359C21.4453 4.82422 21.5312 4.73828 21.6328 4.67578C21.7344 4.60547 21.8398 4.55469 21.9492 4.52344C22.0586 4.48438 22.1641 4.45312 22.2656 4.42969L22.4414 4.48828C22.4805 4.52734 22.5195 4.5625 22.5586 4.59375C22.6055 4.625 22.6484 4.65625 22.6875 4.6875C22.7656 4.65625 22.8125 4.60938 22.8281 4.54688C22.8516 4.48438 22.875 4.42188 22.8984 4.35938C22.9219 4.27344 22.9492 4.1875 22.9805 4.10156C23.0117 4.01562 23.0508 3.92969 23.0977 3.84375C23.0898 3.77344 23.0938 3.71094 23.1094 3.65625C23.125 3.60156 23.1406 3.55469 23.1562 3.51562C23.1094 3.47656 23.0742 3.45703 23.0508 3.45703C23.0352 3.44922 23.0039 3.4375 22.957 3.42188C22.9336 3.42188 22.9102 3.42188 22.8867 3.42188C22.8633 3.41406 22.8359 3.40625 22.8047 3.39844C22.6875 3.3125 22.6094 3.24219 22.5703 3.1875C22.5391 3.125 22.5039 3.0625 22.4648 3C22.4258 2.9375 22.3906 2.88281 22.3594 2.83594C22.3281 2.78906 22.293 2.74609 22.2539 2.70703L22.1133 2.61328L22.1836 2.47266C22.1992 2.45703 22.207 2.4375 22.207 2.41406C22.207 2.38281 22.1914 2.33984 22.1602 2.28516C22.1367 2.18359 22.1328 2.10938 22.1484 2.0625L22.1719 1.92188C22.25 1.82031 22.293 1.76172 22.3008 1.74609L22.418 1.62891C22.5977 1.58203 22.7812 1.53125 22.9688 1.47656C23.1562 1.41406 23.3398 1.35156 23.5195 1.28906C23.6992 1.22656 23.8828 1.16406 24.0703 1.10156C24.2578 1.03906 24.4453 0.984375 24.6328 0.9375C24.6953 0.882812 24.7617 0.851562 24.832 0.84375C24.9102 0.828125 24.9805 0.816406 25.043 0.808594C25.0977 0.808594 25.1484 0.804688 25.1953 0.796875C25.2422 0.789062 25.2773 0.769531 25.3008 0.738281C25.4336 0.691406 25.5625 0.652344 25.6875 0.621094C25.9219 0.558594 26.2305 0.484375 26.6133 0.398438C26.9961 0.3125 27.4258 0.25 27.9023 0.210938L28.1484 0.199219C28.1953 0.207031 28.2422 0.210938 28.2891 0.210938C28.3359 0.203125 28.3828 0.199219 28.4297 0.199219C28.8359 0.199219 29.1055 0.324219 29.2383 0.574219C29.3164 0.613281 29.3867 0.664062 29.4492 0.726562C29.5117 0.78125 29.5703 0.835938 29.625 0.890625C29.6641 0.929688 29.6992 0.964844 29.7305 0.996094C29.7617 1.01953 29.7891 1.03906 29.8125 1.05469L29.9062 1.14844C29.9922 1.33594 30.0078 1.51953 29.9531 1.69922C29.9062 1.79297 29.8555 1.84766 29.8008 1.86328C29.7461 1.87891 29.6914 1.89453 29.6367 1.91016L29.4844 1.99219C29.3828 1.98438 29.3047 1.98047 29.25 1.98047C29.2031 1.98047 29.1484 1.98047 29.0859 1.98047C28.8516 1.98047 28.5781 1.99609 28.2656 2.02734C27.9609 2.05078 27.6484 2.08984 27.3281 2.14453C27.0078 2.19141 26.6953 2.25391 26.3906 2.33203C26.0859 2.40234 25.8203 2.48047 25.5938 2.56641C25.5312 2.61328 25.4492 2.65625 25.3477 2.69531C25.3242 2.70312 25.2891 2.72266 25.2422 2.75391C25.25 2.81641 25.25 2.87891 25.2422 2.94141C25.2344 2.99609 25.2227 3.05078 25.207 3.10547C25.1992 3.14453 25.1914 3.1875 25.1836 3.23438C25.1836 3.27344 25.1797 3.31641 25.1719 3.36328C25.0078 3.55859 24.9297 3.78906 24.9375 4.05469L24.8789 4.17188C24.8477 4.20312 24.8203 4.25 24.7969 4.3125C24.7812 4.36719 24.7812 4.42578 24.7969 4.48828L24.8438 4.62891C25 4.61328 25.1523 4.59766 25.3008 4.58203C25.457 4.55859 25.6211 4.53516 25.793 4.51172C26.0117 4.47266 26.2305 4.44141 26.4492 4.41797C26.6758 4.38672 26.9102 4.37109 27.1523 4.37109H27.6094L27.5039 4.47656L27.6328 4.48828L27.5625 4.67578C27.6172 4.69922 27.6562 4.71875 27.6797 4.73438C27.7109 4.74219 27.7383 4.75391 27.7617 4.76953L27.8438 4.88672C27.8828 4.91016 27.918 4.94922 27.9492 5.00391C27.9805 5.05078 28 5.11719 28.0078 5.20312L27.9727 5.32031L27.4219 6.02344L27.3516 6.11719L27.2344 6.08203C27.0859 6.07422 26.9453 6.08984 26.8125 6.12891C26.75 6.14453 26.6836 6.16406 26.6133 6.1875C26.543 6.20312 26.4727 6.21094 26.4023 6.21094C26.2148 6.24219 26.0586 6.26953 25.9336 6.29297C25.8086 6.30859 25.6836 6.32422 25.5586 6.33984C25.3867 6.37109 25.2188 6.40234 25.0547 6.43359C24.8984 6.45703 24.75 6.49609 24.6094 6.55078C24.5234 6.55859 24.4727 6.5625 24.457 6.5625C24.4414 6.55469 24.4258 6.55078 24.4102 6.55078C24.332 6.55078 24.2539 6.5625 24.1758 6.58594C24.0977 6.60938 24.0234 6.63281 23.9531 6.65625C23.9062 6.69531 23.875 6.73828 23.8594 6.78516C23.8438 6.82422 23.8281 6.86719 23.8125 6.91406C23.7969 6.96875 23.7734 7.02344 23.7422 7.07812C23.7188 7.125 23.6875 7.17578 23.6484 7.23047L23.6602 7.44141C23.5898 7.45703 23.5547 7.46875 23.5547 7.47656C23.5547 7.47656 23.5508 7.47656 23.543 7.47656C23.543 7.53906 23.5312 7.59766 23.5078 7.65234C23.4922 7.70703 23.4766 7.75781 23.4609 7.80469C23.4453 7.83594 23.4336 7.86328 23.4258 7.88672C23.418 7.91016 23.4141 7.93359 23.4141 7.95703C23.4922 8.09766 23.5117 8.25781 23.4727 8.4375C23.4414 8.58594 23.3828 8.71875 23.2969 8.83594C23.2109 8.94531 23.1094 9.03125 22.9922 9.09375C22.8672 9.10938 22.7734 9.10547 22.7109 9.08203C22.6562 9.05859 22.5977 9.03516 22.5352 9.01172C22.4961 8.99609 22.457 8.98438 22.418 8.97656C22.3789 8.96094 22.3398 8.94922 22.3008 8.94141L22.1602 8.82422C22.1367 8.77734 22.1094 8.73438 22.0781 8.69531C22.0469 8.64844 22.0156 8.60156 21.9844 8.55469C21.9453 8.5 21.9062 8.44531 21.8672 8.39062C21.8281 8.33594 21.793 8.27344 21.7617 8.20312C21.707 7.92969 21.6953 7.70312 21.7266 7.52344C21.7656 7.33594 21.8164 7.15234 21.8789 6.97266C21.8945 6.91016 21.9102 6.85156 21.9258 6.79688C21.9414 6.74219 21.957 6.68359 21.9727 6.62109ZM35.2734 2.33203C35.2891 2.50391 35.3164 2.65234 35.3555 2.77734C35.3945 2.90234 35.4375 3.02344 35.4844 3.14062C35.5234 3.25 35.5586 3.35938 35.5898 3.46875C35.6289 3.57031 35.6562 3.69531 35.6719 3.84375C35.6094 4.04688 35.5625 4.23438 35.5312 4.40625C35.5078 4.57812 35.4805 4.75781 35.4492 4.94531C35.3242 5.21875 35.2031 5.46094 35.0859 5.67188C34.9688 5.88281 34.875 6.06641 34.8047 6.22266C34.7656 6.26172 34.7305 6.30859 34.6992 6.36328C34.6758 6.41016 34.6484 6.46094 34.6172 6.51562C34.6016 6.53906 34.582 6.57422 34.5586 6.62109C34.5352 6.66797 34.5156 6.69922 34.5 6.71484L34.2656 6.63281L34.2188 6.92578L34.0547 6.97266L33.9375 7.11328C33.7891 7.37109 33.6328 7.58984 33.4688 7.76953C33.3047 7.94141 33.1172 8.09766 32.9062 8.23828C32.7031 8.37109 32.4688 8.49609 32.2031 8.61328C31.9453 8.73047 31.6523 8.85938 31.3242 9C31.1914 8.98438 31.0742 8.97656 30.9727 8.97656C30.8789 8.96875 30.7891 8.96094 30.7031 8.95312C30.5547 8.95312 30.3711 8.94141 30.1523 8.91797C30.1289 8.85547 30.0938 8.8125 30.0469 8.78906C30 8.76562 29.957 8.75391 29.918 8.75391C29.7852 8.69141 29.6836 8.60156 29.6133 8.48438C29.5508 8.35938 29.4883 8.22656 29.4258 8.08594C29.3867 8 29.3477 7.92188 29.3086 7.85156C29.2695 7.77344 29.2266 7.69531 29.1797 7.61719L29.3789 7.55859L29.1211 7.27734C29.1055 7.25391 29.0859 7.23438 29.0625 7.21875C29.0391 7.19531 29.0195 7.17188 29.0039 7.14844L28.9922 6.96094C28.9688 6.42188 28.957 5.92969 28.957 5.48438C28.9648 5.03125 29.0273 4.62891 29.1445 4.27734V4.14844C29.168 3.97656 29.1914 3.83594 29.2148 3.72656C29.2383 3.60938 29.2578 3.5 29.2734 3.39844C29.2969 3.22656 29.332 3.06641 29.3789 2.91797C29.4883 2.89453 29.5703 2.85156 29.625 2.78906C29.6797 2.71875 29.7266 2.65625 29.7656 2.60156C29.875 2.59375 29.9492 2.60938 29.9883 2.64844C30.0273 2.6875 30.0664 2.75 30.1055 2.83594C30.1445 2.90625 30.1914 2.98438 30.2461 3.07031C30.3086 3.15625 30.3984 3.22266 30.5156 3.26953C30.5312 3.33203 30.5508 3.39844 30.5742 3.46875C30.6055 3.53125 30.6367 3.60156 30.668 3.67969C30.7305 3.8125 30.7852 3.95312 30.832 4.10156C30.8867 4.24219 30.918 4.37891 30.9258 4.51172C30.8477 4.66016 30.7852 4.83203 30.7383 5.02734C30.6992 5.22266 30.6719 5.42188 30.6562 5.625C30.6484 5.82031 30.6523 6.01172 30.668 6.19922C30.6914 6.37891 30.7266 6.53125 30.7734 6.65625L30.8438 6.80859L31.043 6.78516C31.2773 6.72266 31.4883 6.65625 31.6758 6.58594C31.8711 6.50781 32.0508 6.41797 32.2148 6.31641C32.3789 6.21484 32.5352 6.09766 32.6836 5.96484C32.832 5.82422 32.9883 5.66406 33.1523 5.48438C33.3164 5.30469 33.457 5.10156 33.5742 4.875C33.6992 4.64062 33.8008 4.39844 33.8789 4.14844C33.9648 3.89844 34.0273 3.65234 34.0664 3.41016C34.1133 3.16016 34.1445 2.92578 34.1602 2.70703C34.293 2.66016 34.3594 2.56641 34.3594 2.42578L34.3359 2.29688C34.3047 2.25 34.3047 2.19531 34.3359 2.13281C34.3828 1.98438 34.4922 1.87109 34.6641 1.79297C34.7891 1.87109 34.8984 1.95703 34.9922 2.05078C35.0938 2.14453 35.1875 2.23828 35.2734 2.33203ZM40.2539 9.02344C40.1289 9.03125 39.9727 9.02734 39.7852 9.01172C39.6055 8.99609 39.4375 9.02344 39.2812 9.09375C38.8672 9.07812 38.4453 9.02734 38.0156 8.94141C37.5859 8.85547 37.1914 8.75 36.832 8.625C36.7539 8.53906 36.6758 8.46094 36.5977 8.39062C36.5195 8.3125 36.4141 8.25781 36.2812 8.22656C36.0938 8.07812 35.9414 7.89844 35.8242 7.6875C35.707 7.46875 35.6133 7.23828 35.543 6.99609C35.4727 6.75391 35.4258 6.50781 35.4023 6.25781C35.3789 6 35.3711 5.75391 35.3789 5.51953C35.4961 5.16797 35.6602 4.86719 35.8711 4.61719C36.0898 4.35938 36.3125 4.10547 36.5391 3.85547C36.6406 3.80859 36.7148 3.76172 36.7617 3.71484C36.8164 3.66016 36.8711 3.61328 36.9258 3.57422C36.9883 3.52734 37.0469 3.48438 37.1016 3.44531C37.1641 3.39844 37.2188 3.34375 37.2656 3.28125C37.4297 3.24219 37.5703 3.1875 37.6875 3.11719C37.8125 3.03906 37.9336 2.96094 38.0508 2.88281C38.168 2.79688 38.2891 2.71875 38.4141 2.64844C38.5391 2.57812 38.6836 2.52344 38.8477 2.48438C38.9102 2.41406 38.9844 2.35938 39.0703 2.32031C39.1562 2.27344 39.2422 2.23047 39.3281 2.19141C39.4219 2.14453 39.5078 2.09766 39.5859 2.05078C39.6719 2.00391 39.7383 1.94141 39.7852 1.86328C39.8242 1.92578 39.8789 1.94922 39.9492 1.93359C40.0195 1.91016 40.0859 1.88672 40.1484 1.86328C40.1875 1.85547 40.2188 1.86328 40.2422 1.88672C40.2734 1.91016 40.3008 1.93359 40.3242 1.95703C40.3477 1.98047 40.3672 1.99609 40.3828 2.00391C40.4062 2.00391 40.4258 1.98438 40.4414 1.94531C40.4805 1.94531 40.4922 1.96484 40.4766 2.00391C40.4609 2.04297 40.4492 2.07031 40.4414 2.08594C40.5039 2.07812 40.5547 2.09375 40.5938 2.13281C40.6406 2.16406 40.7109 2.18359 40.8047 2.19141C40.8359 2.23047 40.8438 2.26172 40.8281 2.28516C40.8125 2.30078 40.8047 2.33203 40.8047 2.37891C41.0391 2.44922 41.1875 2.5625 41.25 2.71875C41.3125 2.86719 41.3164 3.02344 41.2617 3.1875C41.207 3.35156 41.1094 3.50391 40.9688 3.64453C40.8281 3.78516 40.6758 3.87891 40.5117 3.92578C40.1367 4.02734 39.7812 4.14062 39.4453 4.26562C39.1172 4.38281 38.8477 4.55859 38.6367 4.79297C38.4492 4.84766 38.2812 4.92188 38.1328 5.01562C37.9922 5.10156 37.8555 5.20312 37.7227 5.32031C37.5977 5.42969 37.4766 5.54688 37.3594 5.67188C37.25 5.78906 37.1328 5.90625 37.0078 6.02344C37.0156 6.13281 36.9961 6.21875 36.9492 6.28125C36.9102 6.33594 36.8711 6.39453 36.832 6.45703C36.8477 6.57422 36.875 6.67969 36.9141 6.77344C36.9531 6.85938 36.9961 6.94531 37.043 7.03125C37.5586 7.1875 38.1055 7.28516 38.6836 7.32422C39.2695 7.36328 39.8555 7.38672 40.4414 7.39453C40.4961 7.47266 40.5586 7.54688 40.6289 7.61719C40.707 7.67969 40.7773 7.75 40.8398 7.82812C40.9023 7.89844 40.9531 7.98047 40.9922 8.07422C41.0312 8.16016 41.0391 8.26953 41.0156 8.40234C40.9062 8.51953 40.7852 8.62891 40.6523 8.73047C40.5195 8.82422 40.3867 8.92188 40.2539 9.02344ZM48.6094 8.57812C48.2344 8.59375 47.9023 8.58594 47.6133 8.55469C47.332 8.52344 47.0547 8.44922 46.7812 8.33203C46.7656 8.32422 46.75 8.30469 46.7344 8.27344C46.7188 8.24219 46.7031 8.21875 46.6875 8.20312C46.6406 8.17969 46.582 8.17188 46.5117 8.17969C46.4492 8.17969 46.3945 8.17188 46.3477 8.15625C46.2852 8.125 46.1875 8.06641 46.0547 7.98047C45.9219 7.88672 45.8008 7.80078 45.6914 7.72266C45.5508 7.61328 45.418 7.50391 45.293 7.39453C45.168 7.28516 45.0586 7.16797 44.9648 7.04297C44.9414 7.01172 44.9102 6.99609 44.8711 6.99609C44.832 6.98828 44.7969 6.97656 44.7656 6.96094C44.5391 7.10156 44.3477 7.27734 44.1914 7.48828C44.0352 7.69922 43.8867 7.91406 43.7461 8.13281C43.6055 8.35156 43.457 8.55859 43.3008 8.75391C43.1445 8.94922 42.9453 9.09766 42.7031 9.19922C42.6328 9.19922 42.5703 9.1875 42.5156 9.16406C42.4609 9.14062 42.4102 9.10938 42.3633 9.07031C42.3164 9.03906 42.2695 9.00781 42.2227 8.97656C42.1758 8.94531 42.125 8.92188 42.0703 8.90625C42.0703 8.8125 42.0508 8.72656 42.0117 8.64844C41.9805 8.57031 41.9453 8.49609 41.9062 8.42578C41.875 8.35547 41.8516 8.28906 41.8359 8.22656C41.8203 8.15625 41.8359 8.08984 41.8828 8.02734C41.8359 7.98047 41.7656 7.92969 41.6719 7.875C41.7188 7.82812 41.7383 7.78516 41.7305 7.74609C41.7305 7.70703 41.7227 7.66797 41.707 7.62891C41.6914 7.58984 41.6758 7.54688 41.6602 7.5C41.6523 7.45312 41.6641 7.40625 41.6953 7.35938C41.7344 7.35938 41.7812 7.35156 41.8359 7.33594C41.7891 7.27344 41.7656 7.23828 41.7656 7.23047C41.7734 7.21484 41.7656 7.19531 41.7422 7.17188C41.7266 7.125 41.7344 7.09766 41.7656 7.08984C41.7969 7.07422 41.8281 7.05859 41.8594 7.04297C41.8906 6.66016 41.957 6.30469 42.0586 5.97656C42.1602 5.64844 42.2734 5.33203 42.3984 5.02734C42.5234 4.72266 42.6445 4.41406 42.7617 4.10156C42.8867 3.78906 42.9883 3.45312 43.0664 3.09375C43.1523 3.00781 43.2188 2.90625 43.2656 2.78906C43.3203 2.67188 43.375 2.55469 43.4297 2.4375C43.4922 2.32031 43.5586 2.20703 43.6289 2.09766C43.707 1.98047 43.8125 1.88672 43.9453 1.81641C44.0547 1.82422 44.1523 1.85547 44.2383 1.91016C44.3242 1.95703 44.4297 1.97656 44.5547 1.96875C44.5781 2.00781 44.5977 2.04688 44.6133 2.08594C44.6367 2.125 44.6641 2.16406 44.6953 2.20312L44.8711 2.16797C44.957 2.23828 45.0312 2.32812 45.0938 2.4375C45.1641 2.53906 45.2109 2.64844 45.2344 2.76562C45.2578 2.88281 45.2539 2.99609 45.2227 3.10547C45.1914 3.20703 45.1172 3.28906 45 3.35156C45.0078 3.39062 45.0078 3.42188 45 3.44531C45 3.46094 44.9961 3.47656 44.9883 3.49219C44.9805 3.50781 44.9766 3.52344 44.9766 3.53906C44.9766 3.55469 44.9883 3.57812 45.0117 3.60938C44.8555 3.72656 44.7383 3.89062 44.6602 4.10156C44.582 4.3125 44.5391 4.5 44.5312 4.66406C44.625 4.57031 44.7266 4.48047 44.8359 4.39453C44.9531 4.30078 45.0703 4.21094 45.1875 4.125C45.3125 4.03906 45.4297 3.95703 45.5391 3.87891C45.6562 3.80078 45.7617 3.72266 45.8555 3.64453C46.1133 3.41016 46.3594 3.22266 46.5938 3.08203C46.8359 2.93359 47.0898 2.76953 47.3555 2.58984C47.418 2.57422 47.4648 2.57422 47.4961 2.58984C47.5352 2.59766 47.5742 2.60938 47.6133 2.625C47.6133 2.57812 47.5977 2.55078 47.5664 2.54297C47.543 2.53516 47.5352 2.50391 47.543 2.44922C47.6602 2.41797 47.7617 2.38281 47.8477 2.34375C47.9336 2.29688 48.0273 2.25391 48.1289 2.21484C48.1992 2.28516 48.2656 2.35938 48.3281 2.4375C48.3906 2.50781 48.4766 2.55078 48.5859 2.56641C48.625 2.65234 48.6719 2.71875 48.7266 2.76562C48.7812 2.80469 48.8359 2.84375 48.8906 2.88281C48.9453 2.92188 48.9922 2.96875 49.0312 3.02344C49.0781 3.07812 49.1055 3.16406 49.1133 3.28125C49.082 3.33594 49.0469 3.39453 49.0078 3.45703C48.9766 3.51953 48.9453 3.59375 48.9141 3.67969C48.7578 3.82031 48.5977 3.94531 48.4336 4.05469C48.2773 4.16406 48.1172 4.26953 47.9531 4.37109C47.7891 4.47266 47.6211 4.57422 47.4492 4.67578C47.2773 4.77734 47.1016 4.89844 46.9219 5.03906C46.8828 5.09375 46.832 5.14453 46.7695 5.19141C46.7148 5.23047 46.6562 5.27344 46.5938 5.32031C46.5312 5.35938 46.4727 5.40234 46.418 5.44922C46.3633 5.49609 46.3203 5.55078 46.2891 5.61328C46.2656 5.62109 46.2422 5.625 46.2188 5.625C46.1953 5.625 46.1719 5.62891 46.1484 5.63672C46.125 5.69141 46.0859 5.73438 46.0312 5.76562C45.9844 5.79688 45.9531 5.83984 45.9375 5.89453C46.0547 6.14453 46.207 6.33594 46.3945 6.46875C46.582 6.60156 46.793 6.69922 47.0273 6.76172C47.2617 6.81641 47.5156 6.84766 47.7891 6.85547C48.0625 6.85547 48.3477 6.85547 48.6445 6.85547C48.6758 6.84766 48.6875 6.83203 48.6797 6.80859C48.6797 6.77734 48.6992 6.76562 48.7383 6.77344C48.9258 6.83594 49.0703 6.92578 49.1719 7.04297C49.2734 7.15234 49.3945 7.26172 49.5352 7.37109C49.5195 7.66797 49.4297 7.91406 49.2656 8.10938C49.1016 8.30469 48.8828 8.46094 48.6094 8.57812ZM55.4766 9.38672C54.7891 9.29297 54.3711 8.92969 54.2227 8.29688L54.2344 8.16797C54.2656 8.07422 54.3008 7.96875 54.3398 7.85156C54.3789 7.71875 54.4219 7.58984 54.4688 7.46484C54.5156 7.33203 54.5938 7.21484 54.7031 7.11328C54.7266 7.04297 54.7695 6.9375 54.832 6.79688C54.9023 6.64844 55.0156 6.42969 55.1719 6.14062C55.2969 5.91406 55.3945 5.73438 55.4648 5.60156C55.543 5.46875 55.6055 5.36719 55.6523 5.29688C55.5742 5.15625 55.4648 5.01953 55.3242 4.88672C55.1992 4.65234 55.0898 4.42969 54.9961 4.21875C54.9102 4 54.8438 3.80469 54.7969 3.63281C54.7891 3.44531 54.7578 3.25391 54.7031 3.05859C54.6797 2.95703 54.6562 2.85547 54.6328 2.75391C54.6094 2.65234 54.5977 2.54688 54.5977 2.4375C54.5664 2.38281 54.5391 2.3125 54.5156 2.22656L54.5391 2.08594C54.5781 2.02344 54.5859 1.94141 54.5625 1.83984C54.5469 1.73047 54.5234 1.62109 54.4922 1.51172C54.4688 1.41016 54.4453 1.30469 54.4219 1.19531C54.4062 1.07812 54.4023 0.964844 54.4102 0.855469C54.418 0.746094 54.4453 0.640625 54.4922 0.539062C54.5469 0.4375 54.6367 0.351562 54.7617 0.28125L54.8789 0.199219L54.9961 0.269531C55.082 0.324219 55.1641 0.371094 55.2422 0.410156C55.3203 0.449219 55.3984 0.488281 55.4766 0.527344C55.5703 0.574219 55.6641 0.625 55.7578 0.679688C55.8516 0.726562 55.9531 0.78125 56.0625 0.84375L56.1797 0.925781L56.168 1.05469C56.168 1.07031 56.1719 1.08984 56.1797 1.11328C56.1875 1.13672 56.1992 1.15625 56.2148 1.17188L56.3438 1.20703L56.3555 1.37109V1.51172C56.3555 1.58203 56.3594 1.63281 56.3672 1.66406C56.375 1.6875 56.3906 1.71484 56.4141 1.74609L56.4727 1.89844C56.4727 2.03906 56.4844 2.16406 56.5078 2.27344C56.5312 2.38281 56.5586 2.49219 56.5898 2.60156C56.6289 2.71094 56.6602 2.82422 56.6836 2.94141C56.707 3.05078 56.7109 3.17188 56.6953 3.30469C56.7422 3.28125 56.7891 3.24609 56.8359 3.19922C56.8516 3.18359 56.8672 3.16797 56.8828 3.15234C56.9062 3.13672 56.9297 3.12109 56.9531 3.10547L57.7734 1.99219L57.75 1.85156L58.043 1.57031C58.1211 1.50781 58.1953 1.44531 58.2656 1.38281C58.3359 1.3125 58.3945 1.23438 58.4414 1.14844L58.5117 1.04297C58.8633 0.574219 59.3164 0.285156 59.8711 0.175781L60.0703 0.128906L60.1289 0.316406C60.168 0.425781 60.2422 0.523438 60.3516 0.609375C60.4688 0.6875 60.5938 0.765625 60.7266 0.84375L60.8555 0.925781C60.9023 1.01953 60.9258 1.08984 60.9258 1.13672C60.9258 1.18359 60.9219 1.22266 60.9141 1.25391L60.9727 1.40625C60.8867 1.63281 60.793 1.79688 60.6914 1.89844C60.5898 1.99219 60.4844 2.08203 60.375 2.16797C60.2891 2.23828 60.2109 2.30859 60.1406 2.37891C60.0703 2.44922 60.0156 2.52734 59.9766 2.61328L59.8828 2.73047C59.6875 2.83203 59.5625 2.98047 59.5078 3.17578L59.4609 3.33984H59.2852C59.2773 3.33984 59.2578 3.35938 59.2266 3.39844C59.1953 3.42969 59.1484 3.51172 59.0859 3.64453C59.0156 3.73828 58.9648 3.80078 58.9336 3.83203C58.9102 3.85547 58.8906 3.875 58.875 3.89062C58.8594 3.92969 58.8438 3.96484 58.8281 3.99609C58.8203 4.02734 58.8086 4.06641 58.793 4.11328L58.7227 4.20703C58.6523 4.26953 58.6016 4.33203 58.5703 4.39453C58.5391 4.44922 58.5039 4.51562 58.4648 4.59375C58.4336 4.66406 58.3984 4.73828 58.3594 4.81641C58.3203 4.88672 58.2656 4.95703 58.1953 5.02734L58.2188 5.15625L58.125 5.23828C58.0625 5.29297 58.0078 5.36328 57.9609 5.44922C57.9141 5.52734 57.8672 5.60938 57.8203 5.69531C57.7734 5.78906 57.7227 5.88281 57.668 5.97656C57.6133 6.07031 57.543 6.15625 57.457 6.23438C57.4023 6.375 57.3516 6.48438 57.3047 6.5625C57.2656 6.64062 57.1953 6.73438 57.0938 6.84375C57 7.21875 56.7773 7.62109 56.4258 8.05078C56.418 8.13672 56.3906 8.22266 56.3438 8.30859C56.3047 8.38672 56.2617 8.46094 56.2148 8.53125C56.1992 8.5625 56.1797 8.59766 56.1562 8.63672C56.1406 8.66797 56.1289 8.69141 56.1211 8.70703L56.0859 8.83594C56.0391 8.92188 55.9883 8.99219 55.9336 9.04688C55.8867 9.10156 55.8398 9.15234 55.793 9.19922C55.7695 9.21484 55.7461 9.23438 55.7227 9.25781C55.707 9.28125 55.6914 9.30078 55.6758 9.31641L55.4766 9.38672ZM66.1172 5.48438C66.1094 5.57812 66.1172 5.66797 66.1406 5.75391C66.1641 5.83984 66.1914 5.92578 66.2227 6.01172C66.2617 6.08984 66.2969 6.17188 66.3281 6.25781C66.3594 6.34375 66.3828 6.42969 66.3984 6.51562C66.4141 6.625 66.4141 6.74609 66.3984 6.87891C66.3828 7.00391 66.3555 7.12891 66.3164 7.25391C66.2773 7.37109 66.2266 7.48047 66.1641 7.58203C66.1016 7.67578 66.0273 7.74609 65.9414 7.79297C65.832 7.93359 65.6992 8.04297 65.543 8.12109C65.3867 8.19922 65.2422 8.29297 65.1094 8.40234C65.0234 8.45703 64.9258 8.49609 64.8164 8.51953C64.7148 8.54297 64.6094 8.56641 64.5 8.58984C64.4141 8.63672 64.3125 8.6875 64.1953 8.74219C64.0781 8.78906 63.957 8.83594 63.832 8.88281C63.707 8.92188 63.582 8.95312 63.457 8.97656C63.332 8.99219 63.2227 8.99609 63.1289 8.98828C62.8945 9.07422 62.6641 9.12891 62.4375 9.15234C62.2188 9.18359 61.9609 9.16797 61.6641 9.10547C61.3828 9.14453 61.1211 9.13281 60.8789 9.07031C60.6445 9.00781 60.4336 8.91016 60.2461 8.77734C60.0664 8.63672 59.9062 8.47266 59.7656 8.28516C59.6328 8.08984 59.5234 7.88672 59.4375 7.67578C59.375 7.23047 59.3906 6.82812 59.4844 6.46875C59.5781 6.10156 59.7109 5.76562 59.8828 5.46094C60.0625 5.14844 60.2656 4.86328 60.4922 4.60547C60.7188 4.33984 60.9375 4.08203 61.1484 3.83203C61.1953 3.84766 61.2305 3.84766 61.2539 3.83203C61.2852 3.80859 61.3125 3.78125 61.3359 3.75C61.3594 3.71094 61.3828 3.67578 61.4062 3.64453C61.4375 3.61328 61.4727 3.59375 61.5117 3.58594C61.5664 3.46875 61.6445 3.38281 61.7461 3.32812C61.8555 3.26562 61.9414 3.17969 62.0039 3.07031C62.0742 3.05469 62.1328 3.03125 62.1797 3C62.2266 2.96875 62.2695 2.93359 62.3086 2.89453C62.3555 2.85547 62.4023 2.82031 62.4492 2.78906C62.4961 2.75 62.5508 2.72266 62.6133 2.70703V2.57812C62.7539 2.51562 62.8555 2.44531 62.918 2.36719C62.9883 2.28125 63.0703 2.17969 63.1641 2.0625C63.2344 2.05469 63.2891 2.05078 63.3281 2.05078C63.375 2.05078 63.4414 2.04297 63.5273 2.02734C63.5898 1.91797 63.6445 1.83594 63.6914 1.78125C63.7461 1.72656 63.8242 1.66797 63.9258 1.60547C64.0195 1.65234 64.1211 1.68359 64.2305 1.69922C64.3477 1.71484 64.4492 1.76562 64.5352 1.85156C64.543 1.92969 64.5664 1.99219 64.6055 2.03906C64.6445 2.07812 64.6875 2.11719 64.7344 2.15625C64.7812 2.1875 64.8242 2.22266 64.8633 2.26172C64.9102 2.30078 64.9414 2.35547 64.957 2.42578C64.9883 2.43359 65.0078 2.42969 65.0156 2.41406C65.0312 2.39844 65.0547 2.39453 65.0859 2.40234C65.1094 2.51172 65.1367 2.58594 65.168 2.625C65.1992 2.65625 65.2305 2.72266 65.2617 2.82422C65.2227 2.90234 65.1914 2.98438 65.168 3.07031C65.1523 3.14844 65.1055 3.20703 65.0273 3.24609C65.0195 3.30078 65.0352 3.33203 65.0742 3.33984C65.1133 3.33984 65.1367 3.35938 65.1445 3.39844C65.1523 3.46875 65.1406 3.51953 65.1094 3.55078C65.2969 3.85547 65.4648 4.17969 65.6133 4.52344C65.7617 4.85938 65.9297 5.17969 66.1172 5.48438ZM64.6523 6.59766C64.6836 6.51172 64.7227 6.44141 64.7695 6.38672C64.8242 6.33203 64.8555 6.25 64.8633 6.14062C64.8242 6.07812 64.8008 6.03125 64.793 6C64.7852 5.96094 64.7812 5.90234 64.7812 5.82422C64.6094 5.58203 64.4609 5.32422 64.3359 5.05078C64.2109 4.76953 64.0703 4.50781 63.9141 4.26562C63.8984 4.29688 63.8711 4.32812 63.832 4.35938C63.793 4.39062 63.75 4.38281 63.7031 4.33594C63.6875 4.39844 63.6602 4.44531 63.6211 4.47656C63.582 4.5 63.5391 4.51172 63.4922 4.51172C63.4453 4.50391 63.3945 4.49219 63.3398 4.47656C63.293 4.45312 63.25 4.42578 63.2109 4.39453C62.9844 4.57422 62.7578 4.75 62.5312 4.92188C62.3047 5.09375 62.1016 5.29297 61.9219 5.51953C61.8906 5.53516 61.8711 5.54297 61.8633 5.54297C61.8555 5.53516 61.832 5.53906 61.793 5.55469C61.7305 5.70312 61.6523 5.83984 61.5586 5.96484C61.4727 6.08203 61.3867 6.20312 61.3008 6.32812C61.2148 6.45312 61.1406 6.58594 61.0781 6.72656C61.0156 6.86719 60.9805 7.03125 60.9727 7.21875C61.1055 7.32812 61.2617 7.39453 61.4414 7.41797C61.6211 7.44141 61.8047 7.44531 61.9922 7.42969C62.1875 7.41406 62.375 7.39062 62.5547 7.35938C62.7422 7.32031 62.9141 7.30078 63.0703 7.30078C63.3984 7.22266 63.6797 7.12109 63.9141 6.99609C64.1484 6.86328 64.3945 6.73047 64.6523 6.59766ZM73.5117 2.33203C73.5273 2.50391 73.5547 2.65234 73.5938 2.77734C73.6328 2.90234 73.6758 3.02344 73.7227 3.14062C73.7617 3.25 73.7969 3.35938 73.8281 3.46875C73.8672 3.57031 73.8945 3.69531 73.9102 3.84375C73.8477 4.04688 73.8008 4.23438 73.7695 4.40625C73.7461 4.57812 73.7188 4.75781 73.6875 4.94531C73.5625 5.21875 73.4414 5.46094 73.3242 5.67188C73.207 5.88281 73.1133 6.06641 73.043 6.22266C73.0039 6.26172 72.9688 6.30859 72.9375 6.36328C72.9141 6.41016 72.8867 6.46094 72.8555 6.51562C72.8398 6.53906 72.8203 6.57422 72.7969 6.62109C72.7734 6.66797 72.7539 6.69922 72.7383 6.71484L72.5039 6.63281L72.457 6.92578L72.293 6.97266L72.1758 7.11328C72.0273 7.37109 71.8711 7.58984 71.707 7.76953C71.543 7.94141 71.3555 8.09766 71.1445 8.23828C70.9414 8.37109 70.707 8.49609 70.4414 8.61328C70.1836 8.73047 69.8906 8.85938 69.5625 9C69.4297 8.98438 69.3125 8.97656 69.2109 8.97656C69.1172 8.96875 69.0273 8.96094 68.9414 8.95312C68.793 8.95312 68.6094 8.94141 68.3906 8.91797C68.3672 8.85547 68.332 8.8125 68.2852 8.78906C68.2383 8.76562 68.1953 8.75391 68.1562 8.75391C68.0234 8.69141 67.9219 8.60156 67.8516 8.48438C67.7891 8.35938 67.7266 8.22656 67.6641 8.08594C67.625 8 67.5859 7.92188 67.5469 7.85156C67.5078 7.77344 67.4648 7.69531 67.418 7.61719L67.6172 7.55859L67.3594 7.27734C67.3438 7.25391 67.3242 7.23438 67.3008 7.21875C67.2773 7.19531 67.2578 7.17188 67.2422 7.14844L67.2305 6.96094C67.207 6.42188 67.1953 5.92969 67.1953 5.48438C67.2031 5.03125 67.2656 4.62891 67.3828 4.27734V4.14844C67.4062 3.97656 67.4297 3.83594 67.4531 3.72656C67.4766 3.60938 67.4961 3.5 67.5117 3.39844C67.5352 3.22656 67.5703 3.06641 67.6172 2.91797C67.7266 2.89453 67.8086 2.85156 67.8633 2.78906C67.918 2.71875 67.9648 2.65625 68.0039 2.60156C68.1133 2.59375 68.1875 2.60938 68.2266 2.64844C68.2656 2.6875 68.3047 2.75 68.3438 2.83594C68.3828 2.90625 68.4297 2.98438 68.4844 3.07031C68.5469 3.15625 68.6367 3.22266 68.7539 3.26953C68.7695 3.33203 68.7891 3.39844 68.8125 3.46875C68.8438 3.53125 68.875 3.60156 68.9062 3.67969C68.9688 3.8125 69.0234 3.95312 69.0703 4.10156C69.125 4.24219 69.1562 4.37891 69.1641 4.51172C69.0859 4.66016 69.0234 4.83203 68.9766 5.02734C68.9375 5.22266 68.9102 5.42188 68.8945 5.625C68.8867 5.82031 68.8906 6.01172 68.9062 6.19922C68.9297 6.37891 68.9648 6.53125 69.0117 6.65625L69.082 6.80859L69.2812 6.78516C69.5156 6.72266 69.7266 6.65625 69.9141 6.58594C70.1094 6.50781 70.2891 6.41797 70.4531 6.31641C70.6172 6.21484 70.7734 6.09766 70.9219 5.96484C71.0703 5.82422 71.2266 5.66406 71.3906 5.48438C71.5547 5.30469 71.6953 5.10156 71.8125 4.875C71.9375 4.64062 72.0391 4.39844 72.1172 4.14844C72.2031 3.89844 72.2656 3.65234 72.3047 3.41016C72.3516 3.16016 72.3828 2.92578 72.3984 2.70703C72.5312 2.66016 72.5977 2.56641 72.5977 2.42578L72.5742 2.29688C72.543 2.25 72.543 2.19531 72.5742 2.13281C72.6211 1.98438 72.7305 1.87109 72.9023 1.79297C73.0273 1.87109 73.1367 1.95703 73.2305 2.05078C73.332 2.14453 73.4258 2.23828 73.5117 2.33203ZM75.5039 7.78125C75.418 8.09375 75.3398 8.33203 75.2695 8.49609C75.207 8.65234 75.1094 8.81641 74.9766 8.98828C74.875 8.97266 74.8047 8.98438 74.7656 9.02344C74.7266 9.0625 74.6836 9.09766 74.6367 9.12891C74.5664 9.14453 74.5156 9.14453 74.4844 9.12891C74.4531 9.11328 74.4258 9.09375 74.4023 9.07031C74.3789 9.05469 74.3477 9.03516 74.3086 9.01172C74.2773 8.99609 74.2266 8.98828 74.1562 8.98828C74.1406 8.92578 74.1211 8.86719 74.0977 8.8125C74.082 8.75781 74.0312 8.73828 73.9453 8.75391C73.9609 8.69141 73.9648 8.64062 73.957 8.60156C73.9492 8.55469 73.9375 8.51562 73.9219 8.48438C73.9141 8.44531 73.9062 8.41016 73.8984 8.37891C73.8906 8.33984 73.8945 8.29297 73.9102 8.23828C73.8711 8.23828 73.8398 8.21094 73.8164 8.15625C73.793 8.10156 73.7656 8.04688 73.7344 7.99219C73.7578 7.85156 73.7812 7.71875 73.8047 7.59375C73.8281 7.46875 73.8555 7.35156 73.8867 7.24219C73.9258 7.13281 73.957 7.02344 73.9805 6.91406C74.0039 6.80469 73.9922 6.69141 73.9453 6.57422C73.9766 6.59766 74 6.59375 74.0156 6.5625C74.0312 6.52344 74.043 6.47656 74.0508 6.42188C74.0586 6.35938 74.0625 6.30078 74.0625 6.24609C74.0625 6.18359 74.0586 6.13281 74.0508 6.09375C74.1289 5.89062 74.1914 5.68359 74.2383 5.47266C74.293 5.25391 74.3398 5.03906 74.3789 4.82812C74.4258 4.61719 74.4727 4.41016 74.5195 4.20703C74.5664 4.00391 74.6289 3.81641 74.707 3.64453C74.793 3.62891 74.8867 3.64062 74.9883 3.67969C75.0977 3.71094 75.1641 3.75391 75.1875 3.80859C75.3906 3.65234 75.5703 3.46484 75.7266 3.24609C75.8828 3.01953 76.043 2.80078 76.207 2.58984C76.3711 2.37891 76.5508 2.19141 76.7461 2.02734C76.9492 1.86328 77.2031 1.76562 77.5078 1.73438C77.6641 1.85156 77.8359 1.97266 78.0234 2.09766C78.2188 2.21484 78.3789 2.37109 78.5039 2.56641C78.5664 2.59766 78.6172 2.63281 78.6562 2.67188C78.7031 2.70312 78.7578 2.73828 78.8203 2.77734V2.91797C78.9141 3.00391 78.9883 3.10547 79.043 3.22266C79.1055 3.33203 79.1602 3.45312 79.207 3.58594C79.2539 3.71094 79.3008 3.83984 79.3477 3.97266C79.3945 4.09766 79.4492 4.21875 79.5117 4.33594C79.4961 4.375 79.4883 4.41016 79.4883 4.44141C79.4883 4.46484 79.4922 4.49219 79.5 4.52344C79.5156 4.55469 79.5273 4.58594 79.5352 4.61719C79.543 4.64844 79.543 4.69141 79.5352 4.74609C79.5117 5.08984 79.3984 5.36719 79.1953 5.57812C79 5.78906 78.7617 5.96484 78.4805 6.10547C78.1992 6.23828 77.8984 6.35156 77.5781 6.44531C77.2578 6.53906 76.9688 6.64062 76.7109 6.75C76.7109 6.78125 76.7227 6.79688 76.7461 6.79688C76.7773 6.79688 76.7891 6.81641 76.7812 6.85547C76.9688 6.97266 77.1172 7.06641 77.2266 7.13672C77.3359 7.20703 77.4375 7.26562 77.5312 7.3125C77.6328 7.35938 77.7383 7.40234 77.8477 7.44141C77.9648 7.47266 78.125 7.51172 78.3281 7.55859C78.5312 7.60547 78.6875 7.64453 78.7969 7.67578C78.9141 7.69922 79.0195 7.72266 79.1133 7.74609C79.207 7.76172 79.3008 7.77734 79.3945 7.79297C79.4961 7.80078 79.6367 7.8125 79.8164 7.82812C79.8867 7.89844 79.9453 7.98438 79.9922 8.08594C80.0469 8.17969 80.082 8.27734 80.0977 8.37891C80.1133 8.47266 80.1172 8.56641 80.1094 8.66016C80.1016 8.74609 80.0742 8.81641 80.0273 8.87109C80.0352 8.89453 80.0508 8.90625 80.0742 8.90625C80.1055 8.89844 80.1367 8.89844 80.168 8.90625C80.1211 8.9375 80.082 8.97656 80.0508 9.02344C80.0195 9.07031 79.9883 9.11719 79.957 9.16406C79.9258 9.21094 79.8906 9.25 79.8516 9.28125C79.8125 9.32031 79.7578 9.34375 79.6875 9.35156C79.4453 9.44531 79.1406 9.44922 78.7734 9.36328C78.4062 9.28516 77.9414 9.13672 77.3789 8.91797C77.0977 8.80859 76.8672 8.71484 76.6875 8.63672C76.5156 8.55078 76.3633 8.46875 76.2305 8.39062C76.1055 8.30469 75.9883 8.21484 75.8789 8.12109C75.7773 8.02734 75.6523 7.91406 75.5039 7.78125ZM77.1797 3.76172C77.0938 3.88672 76.9961 4 76.8867 4.10156C76.7852 4.20312 76.6836 4.30859 76.582 4.41797C76.4883 4.51953 76.4023 4.63672 76.3242 4.76953C76.2461 4.89453 76.1914 5.04297 76.1602 5.21484C76.4336 5.18359 76.7188 5.10938 77.0156 4.99219C77.3125 4.86719 77.5938 4.75 77.8594 4.64062C77.8281 4.39844 77.7422 4.20312 77.6016 4.05469C77.4688 3.90625 77.3281 3.80859 77.1797 3.76172ZM80.2969 3.72656C80.3516 3.5625 80.4375 3.42188 80.5547 3.30469C80.6797 3.1875 80.8125 3.08984 80.9531 3.01172C81.1016 2.92578 81.2539 2.85547 81.4102 2.80078C81.5664 2.74609 81.7148 2.69922 81.8555 2.66016C82.168 2.52734 82.5 2.40234 82.8516 2.28516C83.2109 2.16016 83.5742 2.05078 83.9414 1.95703C84.3164 1.86328 84.6992 1.80469 85.0898 1.78125C85.4805 1.75 85.8906 1.79688 86.3203 1.92188C86.3438 2 86.3789 2.07422 86.4258 2.14453C86.4727 2.21484 86.5195 2.28516 86.5664 2.35547C86.6211 2.42578 86.668 2.49609 86.707 2.56641C86.7461 2.62891 86.7695 2.69531 86.7773 2.76562C86.8555 2.83594 86.918 2.91406 86.9648 3C87.0117 3.07812 87.0195 3.18359 86.9883 3.31641C86.9102 3.37891 86.832 3.4375 86.7539 3.49219C86.6836 3.53906 86.6055 3.58203 86.5195 3.62109C86.2305 3.55078 85.9375 3.52734 85.6406 3.55078C85.3438 3.57422 85.0781 3.59375 84.8438 3.60938C84.7734 3.53906 84.6875 3.50391 84.5859 3.50391C84.4922 3.50391 84.3906 3.51953 84.2812 3.55078C84.1797 3.58203 84.0742 3.61328 83.9648 3.64453C83.8633 3.67578 83.7656 3.68359 83.6719 3.66797C83.5938 3.73047 83.4961 3.77344 83.3789 3.79688C83.2695 3.8125 83.1484 3.82812 83.0156 3.84375C83.0078 3.88281 83.0156 3.91016 83.0391 3.92578C83.0625 3.93359 83.0664 3.95703 83.0508 3.99609C83.0977 4.05078 83.1562 4.08984 83.2266 4.11328C83.3047 4.13672 83.3828 4.16016 83.4609 4.18359C83.5469 4.20703 83.6211 4.23828 83.6836 4.27734C83.7461 4.30859 83.7891 4.36328 83.8125 4.44141C83.9297 4.44141 84.0312 4.46875 84.1172 4.52344C84.2031 4.57812 84.2734 4.64453 84.3281 4.72266C84.3828 4.80078 84.4219 4.88672 84.4453 4.98047C84.4766 5.06641 84.4922 5.14453 84.4922 5.21484C84.5156 5.27734 84.543 5.30469 84.5742 5.29688C84.6055 5.28906 84.6406 5.30469 84.6797 5.34375C84.7031 5.44531 84.7617 5.55078 84.8555 5.66016C84.9492 5.76172 85.0234 5.875 85.0781 6C85.0938 6.19531 85.1055 6.37109 85.1133 6.52734C85.1211 6.67578 85.0938 6.82812 85.0312 6.98438C84.9141 7.27344 84.75 7.53125 84.5391 7.75781C84.3359 7.98438 84.1016 8.1875 83.8359 8.36719C83.5781 8.53906 83.3008 8.6875 83.0039 8.8125C82.707 8.9375 82.418 9.04297 82.1367 9.12891C82.1055 9.12109 82.0742 9.12109 82.043 9.12891C82.0117 9.13672 82.0039 9.11719 82.0195 9.07031C81.957 9.125 81.8867 9.16016 81.8086 9.17578C81.7383 9.19141 81.6602 9.19531 81.5742 9.1875C81.4883 9.1875 81.3984 9.18359 81.3047 9.17578C81.2188 9.16797 81.1367 9.17188 81.0586 9.1875C81.0039 9.13281 80.9531 9.07812 80.9062 9.02344C80.8672 8.97656 80.8359 8.91406 80.8125 8.83594C80.7734 8.83594 80.7539 8.81641 80.7539 8.77734C80.7617 8.73828 80.75 8.71875 80.7188 8.71875C80.7656 8.64062 80.7852 8.59766 80.7773 8.58984C80.7773 8.57422 80.7656 8.5625 80.7422 8.55469C80.7266 8.54688 80.7109 8.53906 80.6953 8.53125C80.6797 8.51562 80.6758 8.49609 80.6836 8.47266C80.7148 8.41016 80.7266 8.33984 80.7188 8.26172C80.7109 8.17578 80.7031 8.08984 80.6953 8.00391C80.6875 7.91797 80.6914 7.83594 80.707 7.75781C80.7305 7.67969 80.7891 7.61719 80.8828 7.57031C81.1484 7.60156 81.3984 7.59375 81.6328 7.54688C81.875 7.49219 82.1016 7.41797 82.3125 7.32422C82.5234 7.23047 82.7227 7.12891 82.9102 7.01953C83.1055 6.91016 83.2969 6.8125 83.4844 6.72656C83.5078 6.65625 83.5391 6.59766 83.5781 6.55078C83.625 6.50391 83.6719 6.46094 83.7188 6.42188C83.7656 6.38281 83.8086 6.33984 83.8477 6.29297C83.8867 6.24609 83.9141 6.1875 83.9297 6.11719C83.9375 6.0625 83.9219 6.03125 83.8828 6.02344C83.8516 6.00781 83.8359 5.97656 83.8359 5.92969L83.707 5.89453C83.5586 5.80859 83.3906 5.73828 83.2031 5.68359C83.0156 5.62109 82.8555 5.55469 82.7227 5.48438C82.6367 5.53125 82.5547 5.54297 82.4766 5.51953C82.4062 5.49609 82.3125 5.47266 82.1953 5.44922C81.9297 5.43359 81.6719 5.40625 81.4219 5.36719C81.1797 5.32812 80.9453 5.25781 80.7188 5.15625C80.7031 5.11719 80.6836 5.08203 80.6602 5.05078C80.6367 5.01953 80.5938 5.01172 80.5312 5.02734C80.4844 4.96484 80.4375 4.90625 80.3906 4.85156C80.3438 4.78906 80.3008 4.72266 80.2617 4.65234C80.2773 4.55859 80.2891 4.48047 80.2969 4.41797C80.3047 4.34766 80.2812 4.28125 80.2266 4.21875C80.2578 4.11719 80.2812 4.03516 80.2969 3.97266C80.3125 3.91016 80.3125 3.82812 80.2969 3.72656ZM92.2148 2.40234C92.2227 2.45703 92.2227 2.5 92.2148 2.53125C92.2148 2.55469 92.2109 2.57812 92.2031 2.60156C92.2031 2.625 92.2031 2.65234 92.2031 2.68359C92.2031 2.70703 92.2109 2.74609 92.2266 2.80078C92.0625 3.06641 91.8711 3.25 91.6523 3.35156C91.4414 3.44531 91.2109 3.51562 90.9609 3.5625C90.7109 3.60156 90.4531 3.64453 90.1875 3.69141C89.9297 3.73828 89.6719 3.83984 89.4141 3.99609C89.3125 3.95703 89.2188 3.95703 89.1328 3.99609C89.0547 4.03516 88.9375 4.04688 88.7812 4.03125C88.7344 4.07812 88.6758 4.11328 88.6055 4.13672C88.5352 4.15234 88.4648 4.17188 88.3945 4.19531C88.4258 4.26562 88.4375 4.33984 88.4297 4.41797C88.4297 4.48828 88.4414 4.54688 88.4648 4.59375C88.7383 4.61719 89.0391 4.61328 89.3672 4.58203C89.7031 4.55078 90.0312 4.53125 90.3516 4.52344C90.3594 4.5625 90.3555 4.58984 90.3398 4.60547C90.3242 4.61328 90.3203 4.63281 90.3281 4.66406C90.3828 4.70312 90.4375 4.75391 90.4922 4.81641C90.5469 4.87109 90.6016 4.92578 90.6562 4.98047C90.7109 5.03516 90.7656 5.08203 90.8203 5.12109C90.8828 5.15234 90.9531 5.16406 91.0312 5.15625C91.0625 5.21875 91.082 5.28906 91.0898 5.36719C91.1055 5.4375 91.0977 5.51172 91.0664 5.58984C90.9414 5.67578 90.8164 5.76562 90.6914 5.85938C90.5664 5.94531 90.4336 6.02344 90.293 6.09375C90.1602 6.16406 90.0156 6.22266 89.8594 6.26953C89.7109 6.30859 89.543 6.32422 89.3555 6.31641C89.3164 6.31641 89.2852 6.31641 89.2617 6.31641C89.2461 6.31641 89.2227 6.30469 89.1914 6.28125C89.1289 6.32031 89.0391 6.33203 88.9219 6.31641C88.8125 6.30078 88.7266 6.3125 88.6641 6.35156C88.5781 6.3125 88.4727 6.29688 88.3477 6.30469C88.2305 6.30469 88.125 6.28906 88.0312 6.25781C87.9062 6.42188 87.793 6.59766 87.6914 6.78516C87.5898 6.97266 87.5 7.17188 87.4219 7.38281C87.6875 7.42188 87.9062 7.4375 88.0781 7.42969C88.2578 7.42188 88.4258 7.41016 88.582 7.39453C88.7383 7.37109 88.8984 7.35156 89.0625 7.33594C89.2266 7.3125 89.4336 7.30469 89.6836 7.3125C89.8398 7.22656 90.0234 7.17188 90.2344 7.14844C90.4531 7.11719 90.6523 7.07031 90.832 7.00781C90.8945 7.03125 90.9492 7.07422 90.9961 7.13672C91.043 7.19141 91.0859 7.24609 91.125 7.30078C91.1719 7.34766 91.2188 7.39062 91.2656 7.42969C91.3125 7.46875 91.3711 7.48438 91.4414 7.47656C91.4727 7.50781 91.4922 7.54688 91.5 7.59375C91.5156 7.63281 91.5273 7.67188 91.5352 7.71094C91.543 7.75 91.5547 7.78516 91.5703 7.81641C91.5938 7.83984 91.6289 7.84766 91.6758 7.83984C91.5586 8.09766 91.4219 8.29688 91.2656 8.4375C91.1172 8.57031 90.9453 8.67188 90.75 8.74219C90.5547 8.8125 90.3359 8.86719 90.0938 8.90625C89.8594 8.94531 89.5977 8.99219 89.3086 9.04688C89.2383 9.0625 89.1797 9.05859 89.1328 9.03516C89.0859 9.01953 89.0312 9.01172 88.9688 9.01172C88.7891 9.05078 88.5742 9.08594 88.3242 9.11719C88.0742 9.14844 87.8203 9.16016 87.5625 9.15234C87.3047 9.14453 87.0586 9.10938 86.8242 9.04688C86.5898 8.99219 86.3984 8.89062 86.25 8.74219C86.1875 8.6875 86.1445 8.625 86.1211 8.55469C86.1055 8.47656 86.0547 8.41797 85.9688 8.37891C85.9609 8.27734 85.9453 8.16406 85.9219 8.03906C85.8984 7.91406 85.875 7.78516 85.8516 7.65234C85.8281 7.51172 85.8086 7.375 85.793 7.24219C85.7852 7.10938 85.793 6.98828 85.8164 6.87891C85.8398 6.76172 85.8867 6.65625 85.957 6.5625C86.0352 6.46875 86.0625 6.36719 86.0391 6.25781C86.0781 6.25 86.1016 6.23047 86.1094 6.19922C86.1172 6.16016 86.1484 6.14453 86.2031 6.15234C86.25 6.01172 86.3008 5.87891 86.3555 5.75391C86.4102 5.62891 86.4648 5.50781 86.5195 5.39062C86.582 5.27344 86.6406 5.15625 86.6953 5.03906C86.7578 4.91406 86.8164 4.77734 86.8711 4.62891C86.7617 4.52734 86.6797 4.41797 86.625 4.30078C86.5781 4.17578 86.543 4.05469 86.5195 3.9375C86.4961 3.8125 86.4766 3.6875 86.4609 3.5625C86.4453 3.42969 86.418 3.29688 86.3789 3.16406C86.457 3.04688 86.5508 2.95312 86.6602 2.88281C86.7773 2.80469 86.9023 2.74219 87.0352 2.69531C87.168 2.64844 87.3125 2.60938 87.4688 2.57812C87.625 2.54688 87.7891 2.51172 87.9609 2.47266C88.2734 2.37109 88.5508 2.29297 88.793 2.23828C89.043 2.18359 89.2852 2.14062 89.5195 2.10938C89.7617 2.07031 90.0117 2.03516 90.2695 2.00391C90.5273 1.97266 90.8203 1.92578 91.1484 1.86328C91.2188 1.93359 91.2852 1.96875 91.3477 1.96875C91.3789 1.89844 91.4141 1.87891 91.4531 1.91016C91.5 1.93359 91.5195 1.91016 91.5117 1.83984C91.5898 1.97266 91.6875 2.08594 91.8047 2.17969C91.9297 2.26562 92.0664 2.33984 92.2148 2.40234ZM95.0273 8.87109C94.8086 8.94141 94.5703 9.01172 94.3125 9.08203C94.0547 9.15234 93.7969 9.1875 93.5391 9.1875C93.1484 9.1875 92.8398 9.08984 92.6133 8.89453C92.5742 8.80859 92.5391 8.75 92.5078 8.71875C92.4844 8.6875 92.4609 8.65625 92.4375 8.625C92.4219 8.58594 92.4102 8.53516 92.4023 8.47266C92.3086 8.36328 92.2344 8.23828 92.1797 8.09766C92.125 7.94922 92.0859 7.80078 92.0625 7.65234C92.0469 7.49609 92.043 7.33984 92.0508 7.18359C92.0664 7.02734 92.0938 6.87891 92.1328 6.73828C92.1484 6.70703 92.1562 6.67578 92.1562 6.64453C92.1641 6.61328 92.1719 6.57812 92.1797 6.53906C92.2109 6.41406 92.2422 6.29297 92.2734 6.17578C92.3125 6.05859 92.3633 5.95703 92.4258 5.87109C92.3945 5.80078 92.3945 5.72266 92.4258 5.63672C92.457 5.55078 92.4922 5.47266 92.5312 5.40234C92.6406 5.10547 92.7305 4.85547 92.8008 4.65234C92.8789 4.44141 92.957 4.23438 93.0352 4.03125C93.168 3.67969 93.293 3.33203 93.4102 2.98828C93.5273 2.64453 93.6328 2.27344 93.7266 1.875C93.7891 1.83594 93.8359 1.80859 93.8672 1.79297C93.9141 1.77734 93.9531 1.76562 93.9844 1.75781C94.125 1.82812 94.2891 1.89844 94.4766 1.96875C94.6641 2.03125 94.8203 2.0625 94.9453 2.0625C95.0078 2.10156 95.0469 2.13281 95.0625 2.15625C95.0781 2.17188 95.0938 2.1875 95.1094 2.20312C95.1953 2.30469 95.2695 2.41016 95.332 2.51953C95.3945 2.62109 95.4141 2.75781 95.3906 2.92969C95.3438 3 95.3086 3.03516 95.2852 3.03516C95.2461 3.19141 95.2031 3.32422 95.1562 3.43359C95.1172 3.54297 95.0742 3.65234 95.0273 3.76172C94.9727 3.87891 94.9219 3.99609 94.875 4.11328C94.8281 4.23047 94.7891 4.375 94.7578 4.54688C94.7266 4.58594 94.7031 4.62109 94.6875 4.65234C94.6797 4.68359 94.668 4.71875 94.6523 4.75781C94.6367 4.79688 94.6172 4.83984 94.5938 4.88672C94.5781 4.92578 94.5508 4.96094 94.5117 4.99219C94.4883 5.19531 94.4492 5.35938 94.3945 5.48438C94.3477 5.60938 94.2969 5.73438 94.2422 5.85938C94.1484 6.08594 94.0625 6.3125 93.9844 6.53906C93.9141 6.76562 93.8711 7.02344 93.8555 7.3125C93.8945 7.29688 93.9297 7.28906 93.9609 7.28906C94 7.28906 94.0352 7.28906 94.0664 7.28906C94.1367 7.28906 94.2188 7.30078 94.3125 7.32422C94.5469 7.19922 94.8008 7.125 95.0742 7.10156C95.3555 7.07812 95.6328 7.0625 95.9062 7.05469C96.0156 7.05469 96.125 7.05469 96.2344 7.05469C96.3438 7.05469 96.4453 7.04688 96.5391 7.03125C96.6094 7.07031 96.6523 7.09375 96.668 7.10156C96.6914 7.10156 96.7227 7.10156 96.7617 7.10156C96.8164 7.10156 96.8633 7.10547 96.9023 7.11328C96.9961 7.19922 97.0859 7.26172 97.1719 7.30078C97.2578 7.33984 97.3477 7.375 97.4414 7.40625C97.5273 7.4375 97.6094 7.47266 97.6875 7.51172C97.7734 7.54297 97.8555 7.58984 97.9336 7.65234L98.0156 8.15625C98.0703 8.22656 98.0938 8.27344 98.0859 8.29688C98.0859 8.35938 98.0703 8.40625 98.0391 8.4375L98.0625 8.56641C97.9453 8.58984 97.8633 8.61719 97.8164 8.64844C97.7773 8.67969 97.7383 8.71484 97.6992 8.75391C97.6367 8.76172 97.5898 8.76562 97.5586 8.76562C97.5352 8.76562 97.5117 8.76562 97.4883 8.76562C97.3789 8.76562 97.2461 8.78516 97.0898 8.82422C96.8789 8.75391 96.6602 8.71875 96.4336 8.71875C96.3477 8.71875 96.2578 8.72266 96.1641 8.73047C96.0703 8.73828 95.9766 8.74609 95.8828 8.75391C95.7891 8.76953 95.6914 8.78125 95.5898 8.78906C95.4961 8.79688 95.3984 8.80078 95.2969 8.80078L95.0273 8.87109ZM99.9727 8.60156C99.9258 8.86719 99.793 9.05078 99.5742 9.15234C99.4727 9.16016 99.3945 9.15625 99.3398 9.14062C99.293 9.125 99.2422 9.10547 99.1875 9.08203C99.1172 9.05078 99.0547 9.03125 99 9.02344L98.8711 8.92969C98.8555 8.89062 98.8359 8.85156 98.8125 8.8125C98.7891 8.77344 98.7617 8.73438 98.7305 8.69531C98.668 8.61719 98.6055 8.51953 98.543 8.40234C98.4961 8.17578 98.4883 7.98828 98.5195 7.83984C98.5508 7.68359 98.5898 7.53125 98.6367 7.38281C98.6523 7.33594 98.668 7.28906 98.6836 7.24219C98.6992 7.1875 98.7148 7.13672 98.7305 7.08984C98.5273 6.98047 98.375 6.82422 98.2734 6.62109C98.1719 6.41797 98.1133 6.22266 98.0977 6.03516C98.1211 5.88672 98.1641 5.76953 98.2266 5.68359C98.2891 5.58984 98.3594 5.51562 98.4375 5.46094C98.5234 5.40625 98.6094 5.36328 98.6953 5.33203C98.7891 5.30078 98.8789 5.27344 98.9648 5.25L99.1172 5.30859C99.1875 5.37891 99.2578 5.43359 99.3281 5.47266C99.3828 5.44922 99.418 5.41406 99.4336 5.36719C99.457 5.3125 99.4766 5.25391 99.4922 5.19141C99.5156 5.12109 99.5391 5.05078 99.5625 4.98047C99.5938 4.91016 99.6289 4.83984 99.668 4.76953C99.6602 4.66797 99.6758 4.57422 99.7148 4.48828C99.6602 4.44922 99.6016 4.42578 99.5391 4.41797C99.5234 4.41797 99.4844 4.41016 99.4219 4.39453C99.3281 4.32422 99.2617 4.26562 99.2227 4.21875C99.1914 4.16406 99.1602 4.11328 99.1289 4.06641C99.082 3.96484 99.0234 3.88281 98.9531 3.82031L98.8359 3.73828L98.8945 3.62109C98.9102 3.60547 98.918 3.58594 98.918 3.5625C98.918 3.53906 98.9023 3.50391 98.8711 3.45703C98.8555 3.37109 98.8555 3.3125 98.8711 3.28125L98.8945 3.16406C98.957 3.07812 98.9883 3.03125 98.9883 3.02344L99.0938 2.91797C99.25 2.87891 99.4023 2.83594 99.5508 2.78906C99.707 2.73438 99.8633 2.67969 100.02 2.625C100.168 2.57812 100.316 2.53125 100.465 2.48438C100.621 2.42969 100.777 2.38281 100.934 2.34375C100.988 2.30469 101.047 2.28125 101.109 2.27344C101.172 2.25781 101.23 2.24609 101.285 2.23828C101.332 2.23047 101.375 2.22656 101.414 2.22656C101.453 2.21875 101.48 2.20312 101.496 2.17969C101.59 2.14844 101.699 2.11328 101.824 2.07422C102.02 2.01953 102.277 1.96094 102.598 1.89844C102.918 1.82812 103.277 1.77344 103.676 1.73438L103.875 1.72266C103.914 1.73047 103.953 1.73438 103.992 1.73438C104.031 1.72656 104.07 1.72266 104.109 1.72266C104.461 1.72266 104.684 1.82812 104.777 2.03906C104.848 2.07812 104.91 2.12109 104.965 2.16797C105.02 2.21484 105.07 2.26172 105.117 2.30859C105.141 2.33984 105.164 2.36719 105.188 2.39062C105.219 2.41406 105.242 2.42969 105.258 2.4375C105.391 2.64062 105.434 2.82031 105.387 2.97656C105.316 3.07812 105.227 3.13672 105.117 3.15234L104.988 3.22266C104.902 3.21484 104.836 3.21094 104.789 3.21094C104.75 3.21094 104.707 3.21094 104.66 3.21094C104.465 3.21094 104.238 3.22266 103.98 3.24609C103.723 3.26953 103.457 3.30469 103.184 3.35156C102.918 3.39062 102.66 3.44141 102.41 3.50391C102.16 3.56641 101.941 3.63281 101.754 3.70312L101.543 3.80859C101.488 3.89453 101.457 3.96484 101.449 4.01953C101.441 4.06641 101.434 4.11328 101.426 4.16016C101.418 4.19141 101.41 4.22266 101.402 4.25391C101.402 4.28516 101.398 4.32031 101.391 4.35938C101.258 4.52344 101.191 4.71875 101.191 4.94531C101.137 5.03906 101.102 5.10938 101.086 5.15625C101.07 5.19531 101.07 5.24609 101.086 5.30859C101.234 5.37109 101.375 5.39453 101.508 5.37891C101.641 5.36328 101.773 5.34375 101.906 5.32031C102.086 5.28906 102.27 5.26172 102.457 5.23828C102.652 5.21484 102.852 5.20312 103.055 5.20312H103.43L103.336 5.29688L103.395 5.46094C103.441 5.48438 103.473 5.5 103.488 5.50781C103.512 5.51562 103.535 5.52734 103.559 5.54297L103.617 5.64844C103.648 5.66406 103.676 5.69141 103.699 5.73047C103.73 5.76953 103.75 5.82812 103.758 5.90625L103.277 6.58594L103.113 6.63281C102.98 6.625 102.863 6.64062 102.762 6.67969C102.707 6.69531 102.652 6.71094 102.598 6.72656C102.543 6.73438 102.484 6.73828 102.422 6.73828C102.266 6.76953 102.133 6.79297 102.023 6.80859C101.922 6.82422 101.816 6.83984 101.707 6.85547C101.566 6.87109 101.43 6.89453 101.297 6.92578C101.164 6.94922 101.039 6.98438 100.922 7.03125C100.844 7.03125 100.789 7.03125 100.758 7.03125C100.695 7.03125 100.629 7.04297 100.559 7.06641C100.496 7.08203 100.438 7.09766 100.383 7.11328C100.344 7.14453 100.316 7.17969 100.301 7.21875C100.285 7.25 100.27 7.28516 100.254 7.32422C100.223 7.43359 100.18 7.52344 100.125 7.59375V7.76953C100.062 7.84766 100.023 7.91016 100.008 7.95703C100 7.99609 99.9883 8.03516 99.9727 8.07422C99.957 8.09766 99.9453 8.12109 99.9375 8.14453C99.9297 8.16016 99.9258 8.17969 99.9258 8.20312C99.9883 8.32031 100.004 8.45312 99.9727 8.60156Z" fill="black"/>
</svg>
